<?xml version="1.0" encoding="utf-8"?>
<!-- Generator: Adobe Illustrator 18.0.0, SVG Export Plug-In . SVG Version: 6.00 Build 0)  -->
<!DOCTYPE svg PUBLIC "-//W3C//DTD SVG 1.1//EN" "http://www.w3.org/Graphics/SVG/1.1/DTD/svg11.dtd">
<svg version="1.1" id="Layer_1" xmlns="http://www.w3.org/2000/svg" xmlns:xlink="http://www.w3.org/1999/xlink" x="0px" y="0px"
	 viewBox="0 0 640 1136" enable-background="new 0 0 640 1136" xml:space="preserve">
<rect fill="#FAFAFA" width="640" height="1136"/>
<rect y="430.1" fill="#ED1C24" width="640" height="226.5"/>
<rect x="132.2" y="843.1" fill="#FCEE21" width="481.6" height="113.6"/>
<rect x="-1320" fill="#FAFAFA" width="640" height="1136"/>
<rect x="-660" fill="#FAFAFA" width="640" height="1136"/>
<path fill="#1A1A1A" d="M-1977,445.5v9.5h-2.7v-9.5h-2.6v-2.3h7.9v2.3H-1977z"/>
<path fill="#1A1A1A" d="M-1966.5,454c-0.7,0.7-1.9,1.3-3.5,1.3c-1.5,0-2.7-0.6-3.5-1.3c-0.8-0.8-1.2-1.9-1.2-2.9s0.4-2.1,1.2-2.9
	c0.7-0.7,1.9-1.3,3.5-1.3c1.5,0,2.7,0.6,3.5,1.3c0.8,0.8,1.2,1.9,1.2,2.9S-1965.7,453.2-1966.5,454z M-1971.4,449.6
	c-0.4,0.4-0.6,0.8-0.6,1.5c0,0.7,0.3,1.2,0.6,1.5c0.3,0.3,0.8,0.6,1.5,0.6c0.6,0,1-0.2,1.4-0.6s0.6-0.8,0.6-1.5s-0.2-1.1-0.6-1.5
	c-0.4-0.4-0.8-0.6-1.4-0.6C-1970.5,449-1971,449.2-1971.4,449.6z"/>
<path fill="#1A1A1A" d="M-1954.9,455h-2.5v-1c-0.4,0.6-1.1,1.2-2.5,1.2c-1.2,0-2-0.4-2.7-1.1c-0.8-0.8-1.2-1.9-1.2-3.2
	c0-1.3,0.5-2.4,1.2-3.1c0.7-0.7,1.7-1.1,2.7-1.1c0.9,0,1.8,0.3,2.5,1.2v-5.9h2.5V455z M-1960.7,449.6c-0.4,0.4-0.6,0.9-0.6,1.5
	c0,0.6,0.2,1.1,0.6,1.5c0.4,0.4,0.9,0.5,1.3,0.5c0.5,0,1-0.2,1.5-0.6c0.3-0.3,0.6-0.8,0.6-1.4c0-0.7-0.3-1.1-0.6-1.5
	c-0.4-0.4-0.9-0.6-1.4-0.6C-1959.8,449-1960.3,449.2-1960.7,449.6z"/>
<path fill="#00A99D" d="M-1944.5,452.8h-4.5l-0.9,2.2h-2.8l4.8-11.8h2.5l4.7,11.8h-2.8L-1944.5,452.8z M-1945.2,450.7l-1.5-4l-1.5,4
	H-1945.2z"/>
<path fill="#00A99D" d="M-1938.1,442.3c0.8,0,1.5,0.7,1.5,1.5s-0.7,1.5-1.5,1.5s-1.5-0.7-1.5-1.5S-1938.9,442.3-1938.1,442.3z
	 M-1936.8,447.1v7.9h-2.6v-7.9H-1936.8z"/>
<path fill="#1A1A1A" d="M-1986.6,638.5v15.1h-4.3v-15.1h-4.1v-3.7h12.5v3.7H-1986.6z"/>
<path fill="#1A1A1A" d="M-1969.8,652c-1.1,1.1-3,2-5.5,2c-2.4,0-4.4-0.9-5.5-2c-1.3-1.3-1.9-3.1-1.9-4.7s0.6-3.4,1.9-4.7
	c1.1-1.1,3-2,5.5-2c2.5,0,4.4,0.9,5.5,2c1.3,1.3,1.9,3.1,1.9,4.7S-1968.6,650.7-1969.8,652z M-1977.6,644.9
	c-0.6,0.6-0.9,1.4-0.9,2.4c0,1.2,0.5,1.9,0.9,2.4c0.5,0.5,1.2,0.9,2.3,0.9c0.9,0,1.7-0.3,2.3-0.9s0.9-1.4,0.9-2.4
	c0-1-0.3-1.8-0.9-2.4c-0.6-0.6-1.4-0.9-2.3-0.9C-1976.2,644-1977,644.3-1977.6,644.9z"/>
<path fill="#1A1A1A" d="M-1951.4,653.6h-4.1v-1.5c-0.6,0.9-1.7,1.9-4,1.9c-1.9,0-3.2-0.6-4.3-1.7c-1.3-1.3-2-3.1-2-5
	c0-2.1,0.8-3.8,2-5c1.1-1,2.6-1.7,4.4-1.7c1.4,0,2.9,0.5,3.9,1.8V633h4.1V653.6z M-1960.6,644.9c-0.6,0.6-1,1.4-1,2.4
	c0,0.9,0.4,1.7,1,2.3c0.6,0.6,1.4,0.9,2.1,0.9c0.8,0,1.7-0.3,2.3-0.9c0.5-0.5,0.9-1.2,0.9-2.3c0-1.1-0.4-1.8-0.9-2.3
	c-0.6-0.7-1.4-0.9-2.3-0.9C-1959.2,644.1-1959.9,644.3-1960.6,644.9z"/>
<path fill="#00A99D" d="M-1934.8,650h-7.1l-1.4,3.5h-4.5l7.6-18.8h4l7.4,18.8h-4.5L-1934.8,650z M-1936,646.7l-2.3-6.3l-2.3,6.3
	H-1936z"/>
<path fill="#00A99D" d="M-1924.6,633.3c1.3,0,2.4,1,2.4,2.4s-1,2.4-2.4,2.4c-1.3,0-2.4-1-2.4-2.4S-1926,633.3-1924.6,633.3z
	 M-1922.6,641v12.6h-4.1V641H-1922.6z"/>
<rect x="-2119" y="456.8" fill="none" width="47" height="17"/>
<text transform="matrix(1 0 0 1 -2117.999 471.0028)" font-family="'FuturaPT-Heavy'" font-size="17">TodAi</text>
<rect x="-1961" y="573" fill="none" width="47" height="17"/>
<text transform="matrix(1 0 0 1 -1960.8574 587.1694)" font-family="'ProximaNova-Regular'" font-size="17">TodAi</text>
<path d="M-1951.3,698.7v-16.4h-5.8v-2h14v2h-5.9v16.4H-1951.3z"/>
<path d="M-1943.2,692c0-3.9,2.5-7,6.6-7c4.1,0,6.6,3.1,6.6,7s-2.5,7-6.6,7C-1940.6,699-1943.2,695.9-1943.2,692z M-1932.1,692
	c0-2.7-1.6-5.1-4.4-5.1c-2.8,0-4.4,2.4-4.4,5.1c0,2.7,1.6,5.2,4.4,5.2C-1933.7,697.1-1932.1,694.7-1932.1,692z"/>
<path d="M-1915.9,698.7v-2c-1,1.4-2.6,2.3-4.5,2.3c-3.5,0-5.9-2.7-5.9-7c0-4.3,2.4-7,5.9-7c1.8,0,3.4,0.9,4.5,2.3v-7.1h2.1v18.4
	H-1915.9z M-1915.9,695.1V689c-0.7-1.2-2.3-2.2-4-2.2c-2.7,0-4.3,2.2-4.3,5.2c0,3,1.6,5.1,4.3,5.1
	C-1918.2,697.1-1916.6,696.2-1915.9,695.1z"/>
<path fill="#00A99D" d="M-1895.4,698.7l-1.6-4.1h-9.2l-1.6,4.1h-2.6l7.4-18.4h2.8l7.4,18.4H-1895.4z M-1901.6,682.6l-3.9,9.9h7.8
	L-1901.6,682.6z"/>
<path fill="#00A99D" d="M-1889.8,682c0-0.8,0.6-1.4,1.4-1.4c0.8,0,1.4,0.6,1.4,1.4c0,0.8-0.6,1.4-1.4,1.4
	C-1889.2,683.4-1889.8,682.8-1889.8,682z M-1889.4,698.7v-13.3h2.1v13.3H-1889.4z"/>
<path d="M-1826.6,815.9v-38.6h-13.7v-4.8h33v4.8h-13.8v38.6H-1826.6z"/>
<path d="M-1807.3,800.1c0-9.1,6-16.5,15.6-16.5c9.6,0,15.6,7.4,15.6,16.5s-6,16.5-15.6,16.5
	C-1801.3,816.7-1807.3,809.2-1807.3,800.1z M-1781.3,800.1c0-6.4-3.7-12.1-10.4-12.1c-6.7,0-10.5,5.7-10.5,12.1
	c0,6.4,3.8,12.2,10.5,12.2C-1785,812.3-1781.3,806.6-1781.3,800.1z"/>
<path d="M-1743,815.9v-4.7c-2.3,3.2-6.2,5.5-10.6,5.5c-8.2,0-14-6.3-14-16.5c0-10,5.7-16.5,14-16.5c4.2,0,8.1,2.1,10.6,5.5v-16.7
	h4.9v43.5H-1743z M-1743,807.4v-14.3c-1.8-2.7-5.5-5.1-9.4-5.1c-6.3,0-10.1,5.2-10.1,12.2c0,7,3.8,12.1,10.1,12.1
	C-1748.5,812.3-1744.8,810.1-1743,807.4z"/>
<path fill="#00A99D" d="M-1694.7,815.9l-3.8-9.6h-21.6l-3.8,9.6h-6.2l17.5-43.5h6.7l17.5,43.5H-1694.7z M-1709.4,778l-9.2,23.4h18.4
	L-1709.4,778z"/>
<path fill="#00A99D" d="M-1681.5,776.7c0-1.8,1.5-3.3,3.3-3.3c1.8,0,3.3,1.5,3.3,3.3c0,1.8-1.5,3.3-3.3,3.3
	C-1680,779.9-1681.5,778.5-1681.5,776.7z M-1680.6,815.9v-31.5h4.9v31.5H-1680.6z"/>
<polygon fill="#1A1A1A" points="-1937,371.7 -1937,364 -1982,364 -1982,372.8 -1960,398.6 "/>
<polygon fill="#00A99D" points="-1960,406.2 -1982,380.4 -1982,437 -1937,437 -1937,379.4 "/>
<polygon fill="#FFFFFF" points="-1937,379.4 -1937,371.7 -1960,398.6 -1982,372.8 -1982,380.4 -1960,406.2 "/>
<polygon fill="#1A1A1A" points="-1858,371.7 -1858,364 -1903,364 -1903,372.8 -1881,398.6 "/>
<polygon fill="none" stroke="#00A99D" stroke-miterlimit="10" points="-1881.5,406.2 -1903.5,380.4 -1903.5,437.5 -1858.5,437.5 
	-1858.5,379.4 "/>
<polygon fill="#FFFFFF" points="-1858,379.4 -1858,371.7 -1881,398.6 -1903,372.8 -1903,380.4 -1881,406.2 "/>
<path fill="#1A1A1A" d="M-1760.6,403.8V421h-4.9v-17.1h-4.6v-4.1h14.2v4.1H-1760.6z"/>
<path fill="#1A1A1A" d="M-1741.6,419.1c-1.3,1.3-3.4,2.3-6.2,2.3c-2.8,0-4.9-1-6.2-2.3c-1.4-1.4-2.1-3.5-2.1-5.3
	c0-1.8,0.7-3.9,2.1-5.3c1.3-1.3,3.4-2.3,6.2-2.3c2.8,0,4.9,1,6.2,2.3c1.4,1.4,2.1,3.5,2.1,5.3
	C-1739.4,415.7-1740.1,417.7-1741.6,419.1z M-1750.4,411.2c-0.7,0.7-1.1,1.5-1.1,2.7c0,1.3,0.5,2.1,1.1,2.7c0.6,0.6,1.4,1,2.6,1
	c1,0,1.9-0.4,2.6-1s1.1-1.5,1.1-2.7s-0.4-2-1.1-2.7c-0.7-0.7-1.5-1-2.6-1C-1748.8,410.1-1749.7,410.5-1750.4,411.2z"/>
<path fill="#1A1A1A" d="M-1720.7,421h-4.6v-1.7c-0.7,1-2,2.2-4.5,2.2c-2.1,0-3.6-0.7-4.9-1.9c-1.5-1.5-2.2-3.5-2.2-5.7
	c0-2.4,0.9-4.3,2.2-5.6c1.2-1.2,3-1.9,4.9-1.9c1.6,0,3.3,0.5,4.4,2.1v-10.6h4.6V421z M-1731.1,411.2c-0.7,0.6-1.1,1.6-1.1,2.7
	c0,1.1,0.4,2,1.1,2.6c0.7,0.7,1.6,1,2.4,1c0.9,0,1.9-0.4,2.6-1.1c0.5-0.5,1.1-1.4,1.1-2.6c0-1.2-0.5-2-1-2.6
	c-0.7-0.8-1.6-1.1-2.6-1.1C-1729.6,410.2-1730.4,410.5-1731.1,411.2z"/>
<path fill="#00A99D" d="M-1701.9,416.9h-8l-1.6,4h-5.1l8.6-21.3h4.5l8.4,21.3h-5.1L-1701.9,416.9z M-1703.2,413.2l-2.6-7.1l-2.6,7.1
	H-1703.2z"/>
<path fill="#00A99D" d="M-1690.4,398c1.5,0,2.7,1.2,2.7,2.7c0,1.5-1.2,2.7-2.7,2.7c-1.5,0-2.7-1.2-2.7-2.7
	C-1693.1,399.2-1691.9,398-1690.4,398z M-1688.1,406.7V421h-4.6v-14.2H-1688.1z"/>
<polygon fill="#1A1A1A" points="-1818.4,400 -1824,400 -1824,421 -1818,421 -1805.9,410.7 "/>
<polygon fill="#00A99D" points="-1802.3,410.7 -1814.4,421 -1788,421 -1788,400 -1814.9,400 "/>
<polygon fill="#FFFFFF" points="-1814.9,400 -1818.4,400 -1805.9,410.7 -1818,421 -1814.4,421 -1802.3,410.7 "/>
<rect x="-2148.2" y="359.7" width="45.3" height="73.4"/>
<polyline fill="none" stroke="#FFFFFF" stroke-width="5" stroke-miterlimit="10" points="-2098.5,366.5 -2126,398.4 -2153,367 "/>
<rect x="-1903.5" y="364" fill="none" stroke="#00A99D" stroke-miterlimit="10" width="45.5" height="73.5"/>
<path fill="#00A99D" d="M-1903.5,465.8"/>
<polygon fill="none" stroke="#1A1A1A" stroke-width="4" stroke-miterlimit="10" points="-1845,486 -1845,503.5 -1760,567.2 
	-1675,503.5 -1675,486 "/>
<polygon fill="none" stroke="#1A1A1A" stroke-width="4" stroke-miterlimit="10" points="-1664,16 -1664,33.5 -1579,97.2 -1494,33.5 
	-1494,16 "/>
<polygon fill="none" stroke="#00A99D" stroke-width="4" stroke-miterlimit="10" points="-1675,524.8 -1675,741 -1845,741 
	-1845,524.8 -1760,588.4 "/>
<path d="M-1521.1,1071.1v-38.6h-13.7v-4.8h33v4.8h-13.8v38.6H-1521.1z"/>
<path d="M-1501.8,1055.4c0-9.1,6-16.5,15.6-16.5c9.6,0,15.6,7.4,15.6,16.5s-6,16.5-15.6,16.5
	C-1495.8,1071.9-1501.8,1064.5-1501.8,1055.4z M-1475.8,1055.4c0-6.4-3.7-12.1-10.4-12.1c-6.7,0-10.5,5.7-10.5,12.1
	c0,6.4,3.8,12.2,10.5,12.2C-1479.5,1067.5-1475.8,1061.8-1475.8,1055.4z"/>
<path d="M-1437.5,1071.1v-4.7c-2.3,3.2-6.2,5.5-10.6,5.5c-8.2,0-14-6.3-14-16.5c0-10,5.7-16.5,14-16.5c4.2,0,8.1,2.1,10.6,5.5v-16.7
	h4.9v43.5H-1437.5z M-1437.5,1062.6v-14.3c-1.8-2.7-5.5-5.1-9.4-5.1c-6.3,0-10.1,5.2-10.1,12.2c0,7,3.8,12.1,10.1,12.1
	C-1443.1,1067.5-1439.3,1065.3-1437.5,1062.6z"/>
<path fill="#00A99D" d="M-1389.2,1071.1l-3.8-9.6h-21.6l-3.8,9.6h-6.2l17.5-43.5h6.7l17.5,43.5H-1389.2z M-1403.9,1033.3l-9.2,23.4
	h18.4L-1403.9,1033.3z"/>
<path fill="#00A99D" d="M-1376,1031.9c0-1.8,1.5-3.3,3.3-3.3c1.8,0,3.3,1.5,3.3,3.3s-1.5,3.3-3.3,3.3
	C-1374.5,1035.2-1376,1033.7-1376,1031.9z M-1375.2,1071.1v-31.5h4.9v31.5H-1375.2z"/>
<g>
	<path fill="#1A1A1A" d="M-1064.5,745.4h-3.4v-45.5h-15.8v-3.2h35.1v3.2h-15.8V745.4z"/>
	<path fill="#1A1A1A" d="M-1011.7,727.3c0,5.9-1.4,10.5-4.3,13.8c-2.9,3.3-6.8,5-11.9,5c-3.2,0-6-0.8-8.4-2.3
		c-2.4-1.5-4.3-3.7-5.6-6.6c-1.3-2.9-1.9-6.2-1.9-9.9c0-5.9,1.4-10.5,4.3-13.8c2.9-3.3,6.8-4.9,11.8-4.9c5,0,8.9,1.7,11.7,5
		C-1013.2,716.9-1011.7,721.4-1011.7,727.3z M-1040.3,727.3c0,5,1.1,8.8,3.3,11.6s5.3,4.2,9.3,4.2c4,0,7.1-1.4,9.3-4.2
		c2.2-2.8,3.3-6.7,3.3-11.6c0-5-1.1-8.9-3.3-11.6c-2.2-2.7-5.3-4.1-9.3-4.1c-4,0-7.1,1.4-9.2,4.1
		C-1039.2,718.4-1040.3,722.2-1040.3,727.3z"/>
	<path fill="#1A1A1A" d="M-987.8,708.5c2.6,0,4.9,0.5,6.8,1.4c1.9,1,3.6,2.6,5.1,4.9h0.2c-0.1-2.8-0.2-5.5-0.2-8.2v-13h3.3v51.8
		h-2.2l-0.8-5.5h-0.3c-2.8,4.1-6.7,6.2-11.9,6.2c-5,0-8.8-1.6-11.5-4.7c-2.6-3.1-4-7.6-4-13.6c0-6.3,1.3-11,3.9-14.3
		C-996.6,710.2-992.8,708.5-987.8,708.5z M-987.8,711.5c-3.9,0-6.9,1.4-8.9,4.2c-2,2.8-3,6.8-3,12.1c0,10.3,4,15.4,11.9,15.4
		c4.1,0,7.1-1.2,9-3.6c1.9-2.4,2.9-6.3,2.9-11.8v-0.6c0-5.6-0.9-9.6-2.8-12.1C-980.6,712.7-983.6,711.5-987.8,711.5z"/>
	<path fill="#00A99D" d="M-935.5,728.2h-19.8l-6.8,17.2h-3.8l19.6-48.9h2.2l19.2,48.9h-3.8L-935.5,728.2z M-954,725.2h17.4
		l-6.6-17.5c-0.6-1.4-1.2-3.3-2-5.7c-0.6,2.1-1.3,4.1-2,5.8L-954,725.2z"/>
	<path fill="#00A99D" d="M-918.6,699.2c0-2.1,0.7-3.2,2.1-3.2c0.7,0,1.2,0.3,1.6,0.8c0.4,0.6,0.6,1.3,0.6,2.4c0,1-0.2,1.8-0.6,2.4
		c-0.4,0.6-0.9,0.9-1.6,0.9C-917.9,702.4-918.6,701.3-918.6,699.2z M-914.9,745.4h-3.3v-36.2h3.3V745.4z"/>
	<polygon fill="none" stroke="#1A1A1A" stroke-width="4" stroke-linejoin="round" stroke-miterlimit="10" points="-1086,390 
		-1086,406.5 -1001,470.1 -916,406.5 -916,390 	"/>
	<polygon fill="none" stroke="#00A99D" stroke-width="4" stroke-linejoin="round" stroke-miterlimit="10" points="-916,444.7 
		-916,645 -1086,645 -1086,444.7 -1001,508.4 	"/>
</g>
<polygon fill="none" stroke="#1A1A1A" stroke-width="3" stroke-linejoin="round" stroke-miterlimit="10" points="-627.5,36.5 
	-627.5,43.2 -584,75.8 -540.5,43.2 -540.5,36.5 "/>
<polygon opacity="0.25" fill="none" stroke="#00A99D" stroke-width="3" stroke-linejoin="round" stroke-miterlimit="10" points="
	-540.5,62.7 -540.5,167.5 -627.5,167.5 -627.5,62.7 -584,95.3 "/>
<path fill="#1A1A1A" d="M-1194,1287.2h-3.4v-45.5h-15.8v-3.2h35.1v3.2h-15.8V1287.2z"/>
<path fill="#1A1A1A" d="M-1141.1,1269.1c0,5.9-1.4,10.5-4.3,13.8c-2.9,3.3-6.8,5-11.9,5c-3.2,0-6-0.8-8.4-2.3
	c-2.4-1.5-4.3-3.7-5.6-6.6c-1.3-2.9-1.9-6.2-1.9-9.9c0-5.9,1.4-10.5,4.3-13.8c2.9-3.3,6.8-4.9,11.8-4.9c5,0,8.9,1.7,11.7,5
	C-1142.6,1258.7-1141.1,1263.3-1141.1,1269.1z M-1169.7,1269.1c0,5,1.1,8.8,3.3,11.6c2.2,2.8,5.3,4.2,9.3,4.2c4,0,7.1-1.4,9.3-4.2
	c2.2-2.8,3.3-6.7,3.3-11.6c0-5-1.1-8.9-3.3-11.6c-2.2-2.7-5.3-4.1-9.3-4.1c-4,0-7.1,1.4-9.2,4.1
	C-1168.6,1260.2-1169.7,1264.1-1169.7,1269.1z"/>
<path fill="#1A1A1A" d="M-1117.2,1250.3c2.6,0,4.9,0.5,6.8,1.4c1.9,1,3.6,2.6,5.1,4.9h0.2c-0.1-2.8-0.2-5.5-0.2-8.2v-13h3.3v51.8
	h-2.2l-0.8-5.5h-0.3c-2.8,4.1-6.7,6.2-11.9,6.2c-5,0-8.8-1.6-11.5-4.7c-2.6-3.1-4-7.6-4-13.6c0-6.3,1.3-11,3.9-14.3
	C-1126,1252-1122.2,1250.3-1117.2,1250.3z M-1117.2,1253.3c-3.9,0-6.9,1.4-8.9,4.2c-2,2.8-3,6.8-3,12.1c0,10.3,4,15.4,11.9,15.4
	c4.1,0,7.1-1.2,9-3.6s2.9-6.3,2.9-11.8v-0.6c0-5.6-0.9-9.6-2.8-12.1C-1110,1254.5-1113,1253.3-1117.2,1253.3z"/>
<path fill="#00A99D" d="M-1064.9,1270h-19.8l-6.8,17.2h-3.8l19.6-48.9h2.2l19.2,48.9h-3.8L-1064.9,1270z M-1083.5,1267h17.4
	l-6.6-17.5c-0.6-1.4-1.2-3.3-2-5.7c-0.6,2.1-1.3,4.1-2,5.8L-1083.5,1267z"/>
<path fill="#00A99D" d="M-1048.1,1241c0-2.1,0.7-3.2,2.1-3.2c0.7,0,1.2,0.3,1.6,0.8s0.6,1.3,0.6,2.4c0,1-0.2,1.8-0.6,2.4
	c-0.4,0.6-0.9,0.9-1.6,0.9C-1047.4,1244.2-1048.1,1243.1-1048.1,1241z M-1044.3,1287.2h-3.3V1251h3.3V1287.2z"/>
<rect x="-2110" y="699" fill="#00A99D" width="18" height="1"/>
<rect x="-2102" y="699" fill="#00A99D" width="1" height="18"/>
<path fill="#00A99D" d="M-2087.5,717.5c-2.8,0-5-2.2-5-5s2.2-5,5-5s5,2.2,5,5S-2084.7,717.5-2087.5,717.5z M-2087.5,708.5
	c-2.2,0-4,1.8-4,4s1.8,4,4,4c2.2,0,4-1.8,4-4S-2085.3,708.5-2087.5,708.5z"/>
<g>
	<path fill="none" d="M-2074.5,709.5c-2.2,0-4,1.8-4,4s1.8,4,4,4c1.5,0,2.8-0.9,3.5-2.1v-3.8C-2071.7,710.4-2073,709.5-2074.5,709.5
		z"/>
	<path fill="#00A99D" d="M-2070.5,713.5c0-0.7-0.2-1.3-0.5-1.9v3.8C-2070.7,714.8-2070.5,714.2-2070.5,713.5z"/>
	<path fill="#00A99D" d="M-2071,717.1v0.9h1v-2.4C-2070.3,716.2-2070.6,716.7-2071,717.1z"/>
	<path fill="#00A99D" d="M-2070,711.4V700h-1v9.9C-2070.6,710.3-2070.3,710.8-2070,711.4z"/>
	<path fill="#00A99D" d="M-2074.5,717.5c-2.2,0-4-1.8-4-4s1.8-4,4-4c1.5,0,2.8,0.9,3.5,2.1v-1.7c-0.9-0.9-2.1-1.4-3.5-1.4
		c-2.8,0-5,2.2-5,5s2.2,5,5,5c1.4,0,2.6-0.6,3.5-1.4v-1.7C-2071.7,716.6-2073,717.5-2074.5,717.5z"/>
	<path fill="#00A99D" d="M-2070,715.6v-4.3c-0.3-0.5-0.6-1-1-1.4v1.7c0.3,0.6,0.5,1.2,0.5,1.9s-0.2,1.3-0.5,1.9v1.7
		C-2070.6,716.7-2070.3,716.2-2070,715.6z"/>
</g>
<g>
	<polygon fill="none" points="-2059.9,708 -2052.1,708 -2056,700.1 	"/>
	<polygon fill="#00A99D" points="-2059.9,708 -2060.4,709 -2051.6,709 -2052.1,708 	"/>
	<polygon fill="#00A99D" points="-2050.9,708 -2052.1,708 -2051.6,709 -2050.4,709 	"/>
	<polygon fill="#00A99D" points="-2061.1,708 -2061.6,709 -2060.4,709 -2059.9,708 	"/>
	<polygon fill="#00A99D" points="-2061.1,708 -2059.9,708 -2056,700.1 -2052.1,708 -2050.9,708 -2055.4,699 -2056.6,699 	"/>
	<path fill="#00A99D" d="M-2046.6,716.8l-3.9-7.8h-1.1l4,8h1.1C-2046.5,716.9-2046.5,716.8-2046.6,716.8z"/>
	<path fill="#00A99D" d="M-2060.4,709h-1.1l-3.9,7.8c0,0.1,0,0.1,0,0.2h1.1L-2060.4,709z"/>
</g>
<rect x="-2035" y="708" fill="#00A99D" width="1" height="9"/>
<circle fill="#00A99D" cx="-2035.2" cy="706" r="1"/>
<rect x="-627.5" y="228" fill="none" width="419.7" height="54"/>
<text transform="matrix(1 0 0 1 -627.5002 270.8452)" font-family="'OpenSans-Light'" font-size="50" letter-spacing="1">Today’s agenda</text>
<rect x="-496.6" y="75" fill="none" width="419.7" height="54"/>
<text transform="matrix(1 0 0 1 -469.1546 117.8557)" fill="#00A99D" font-family="'OpenSans-Light'" font-size="50" letter-spacing="1">Add new task +</text>
<rect x="-627.5" y="344.7" fill="none" width="87" height="54"/>
<text transform="matrix(1 0 0 1 -598.2694 387.5927)" font-family="'OpenSans-Light'" font-size="50" letter-spacing="1">1</text>
<rect x="-627.5" y="516.2" fill="none" width="87" height="54"/>
<text transform="matrix(1 0 0 1 -598.2694 559.0604)" font-family="'OpenSans-Light'" font-size="50" letter-spacing="1">2</text>
<rect x="-627.5" y="858.9" fill="none" width="87" height="54"/>
<text transform="matrix(1 0 0 1 -598.2694 901.7336)" font-family="'OpenSans-Light'" font-size="50" letter-spacing="1">4</text>
<rect x="-504.7" y="328.2" fill="none" width="440.8" height="87"/>
<text transform="matrix(1 0 0 1 -504.7426 349.668)"><tspan x="0" y="0" font-family="'OpenSans-Bold'" font-size="25">Call grandma</tspan><tspan x="0" y="30" font-family="'OpenSans'" font-size="25">Ask for cookie recipe.</tspan></text>
<rect x="-627.5" y="328.2" fill="none" stroke="#1A1A1A" stroke-width="3" stroke-linejoin="round" stroke-miterlimit="10" width="87" height="87"/>
<rect x="-504.7" y="442.5" fill="none" width="440.8" height="140.6"/>
<text transform="matrix(1 0 0 1 -504.7426 463.9572)"><tspan x="0" y="0" font-family="'OpenSans-Bold'" font-size="25">Shitty essay</tspan><tspan x="0" y="30" font-family="'OpenSans'" font-size="25">Write it. It should be about  </tspan><tspan x="0" y="60" font-family="'OpenSans'" font-size="25">dinosaurs and shiet. Cool, but not </tspan><tspan x="0" y="90" font-family="'OpenSans'" font-size="25">so nice to write.</tspan></text>
<rect x="-627.5" y="442.6" fill="none" stroke="#1A1A1A" stroke-width="3" stroke-linejoin="round" stroke-miterlimit="10" width="87" height="201.2"/>
<rect x="-504.7" y="671.1" fill="none" width="440.8" height="87"/>
<text transform="matrix(1 0 0 1 -504.7426 692.5342)"><tspan x="0" y="0" font-family="'OpenSans-Bold'" font-size="25">Graphic design for TodAi</tspan><tspan x="0" y="30" font-family="'OpenSans'" font-size="25">Just make it good.</tspan></text>
<rect x="-627.5" y="670.8" fill="none" stroke="#1A1A1A" stroke-width="3" stroke-linejoin="round" stroke-miterlimit="10" width="87" height="430.2"/>
<rect x="-509.5" y="36.5" fill="none" stroke="#00A99D" stroke-width="3" stroke-linejoin="round" stroke-miterlimit="10" width="445.6" height="131"/>
<polygon fill="none" stroke="#1A1A1A" stroke-width="3" stroke-linejoin="round" stroke-miterlimit="10" points="32.5,36.5 
	32.5,43.2 76,75.8 119.5,43.2 119.5,36.5 "/>
<polygon opacity="0.25" fill="none" stroke="#00A99D" stroke-width="3" stroke-linejoin="round" stroke-miterlimit="10" points="
	119.5,62.7 119.5,167.5 32.5,167.5 32.5,62.7 76,95.3 "/>
<rect x="32.5" y="228" fill="none" width="419.7" height="54"/>
<text transform="matrix(1 0 0 1 32.4998 270.8452)" font-family="'OpenSans-Light'" font-size="50" letter-spacing="1">Today’s agenda</text>
<rect x="163.4" y="75" fill="none" width="419.7" height="54"/>
<text transform="matrix(1 0 0 1 190.8454 117.8557)" fill="#00A99D" font-family="'OpenSans-Light'" font-size="50" letter-spacing="1">Add new task +</text>
<rect x="32.5" y="344.7" fill="none" width="87" height="54"/>
<text transform="matrix(1 0 0 1 61.7306 387.5927)" font-family="'OpenSans-Light'" font-size="50" letter-spacing="1">1</text>
<rect x="32.5" y="858.9" fill="none" width="87" height="54"/>
<text transform="matrix(1 0 0 1 61.7306 901.7336)" font-family="'OpenSans-Light'" font-size="50" letter-spacing="1">4</text>
<rect x="155.3" y="328.2" fill="none" width="440.8" height="87"/>
<text transform="matrix(1 0 0 1 155.2573 349.668)"><tspan x="0" y="0" font-family="'OpenSans-Bold'" font-size="25">Call grandma</tspan><tspan x="0" y="30" font-family="'OpenSans'" font-size="25">Ask for cookie recipe.</tspan></text>
<rect x="32.5" y="328.2" fill="none" stroke="#1A1A1A" stroke-width="3" stroke-linejoin="round" stroke-miterlimit="10" width="87" height="87"/>
<rect x="155.3" y="442.5" fill="none" width="440.8" height="188.6"/>
<text transform="matrix(1 0 0 1 155.2583 463.9572)"><tspan x="0" y="0" fill="#FAFAFA" font-family="'OpenSans'" font-size="25">Hey! You can’t remove </tspan><tspan x="285.9" y="0" fill="#FAFAFA" font-family="'OpenSans-Bold'" font-size="25">Shitty </tspan><tspan x="0" y="30" fill="#FAFAFA" font-family="'OpenSans-Bold'" font-size="25">essay </tspan><tspan x="81" y="30" fill="#FAFAFA" font-family="'OpenSans'" font-size="25">from today’s list. Due is </tspan><tspan x="0" y="60" fill="#FAFAFA" font-family="'OpenSans'" font-size="25">tomorrow and you don’t have any </tspan><tspan x="0" y="90" fill="#FAFAFA" font-family="'OpenSans'" font-size="25">other time to do it.</tspan><tspan x="0" y="150" fill="#FAFAFA" font-family="'OpenSans'" font-size="25">Dude, just do it.</tspan></text>
<rect x="155.3" y="671.1" fill="none" width="440.8" height="87"/>
<text transform="matrix(1 0 0 1 155.2573 692.5342)"><tspan x="0" y="0" font-family="'OpenSans-Bold'" font-size="25">Graphic design for TodAi</tspan><tspan x="0" y="30" font-family="'OpenSans'" font-size="25">Just make it good.</tspan></text>
<rect x="155.3" y="869.4" fill="none" width="440.8" height="87"/>
<text transform="matrix(1 0 0 1 155.2573 890.8075)"><tspan x="0" y="0" font-family="'OpenSans'" font-size="25">(Swipe from right to left postpones </tspan><tspan x="0" y="30" font-family="'OpenSans'" font-size="25">task. Or tries to postpone it.)</tspan></text>
<rect x="32.5" y="670.8" fill="none" stroke="#1A1A1A" stroke-width="3" stroke-linejoin="round" stroke-miterlimit="10" width="87" height="430.2"/>
<rect x="150.5" y="36.5" fill="none" stroke="#00A99D" stroke-width="3" stroke-linejoin="round" stroke-miterlimit="10" width="445.6" height="131"/>
<rect x="660" fill="#FAFAFA" width="640" height="1136"/>
<rect x="660" y="430.1" fill="#00A99D" width="640" height="226.5"/>
<rect x="792.2" y="843.1" fill="#FCEE21" width="481.6" height="113.6"/>
<polygon fill="none" stroke="#1A1A1A" stroke-width="3" stroke-linejoin="round" stroke-miterlimit="10" points="692.5,36.5 
	692.5,43.2 736,75.8 779.5,43.2 779.5,36.5 "/>
<polygon opacity="0.25" fill="none" stroke="#00A99D" stroke-width="3" stroke-linejoin="round" stroke-miterlimit="10" points="
	779.5,62.7 779.5,167.5 692.5,167.5 692.5,62.7 736,95.3 "/>
<rect x="692.5" y="228" fill="none" width="419.7" height="54"/>
<text transform="matrix(1 0 0 1 692.4998 270.8452)" font-family="'OpenSans-Light'" font-size="50" letter-spacing="1">Today’s agenda</text>
<rect x="823.4" y="75" fill="none" width="419.7" height="54"/>
<text transform="matrix(1 0 0 1 850.8455 117.8557)" fill="#00A99D" font-family="'OpenSans-Light'" font-size="50" letter-spacing="1">Add new task +</text>
<rect x="692.5" y="344.7" fill="none" width="87" height="54"/>
<text transform="matrix(1 0 0 1 721.7306 387.5927)" font-family="'OpenSans-Light'" font-size="50" letter-spacing="1">1</text>
<rect x="692.5" y="858.9" fill="none" width="87" height="54"/>
<text transform="matrix(1 0 0 1 721.7306 901.7336)" font-family="'OpenSans-Light'" font-size="50" letter-spacing="1">4</text>
<rect x="815.3" y="328.2" fill="none" width="440.8" height="87"/>
<text transform="matrix(1 0 0 1 815.2573 349.668)"><tspan x="0" y="0" font-family="'OpenSans-Bold'" font-size="25">Call grandma</tspan><tspan x="0" y="30" font-family="'OpenSans'" font-size="25">Ask for cookie recipe.</tspan></text>
<rect x="692.5" y="328.2" fill="none" stroke="#1A1A1A" stroke-width="3" stroke-linejoin="round" stroke-miterlimit="10" width="87" height="87"/>
<rect x="815.3" y="442.5" fill="none" width="440.8" height="188.6"/>
<text transform="matrix(1 0 0 1 815.2583 463.9572)"><tspan x="0" y="0" fill="#FAFAFA" font-family="'OpenSans-Bold'" font-size="25">Shitty essay </tspan><tspan x="167.7" y="0" fill="#FAFAFA" font-family="'OpenSans'" font-size="25">postponed. </tspan></text>
<rect x="815.3" y="671.1" fill="none" width="440.8" height="87"/>
<text transform="matrix(1 0 0 1 815.2573 692.5342)"><tspan x="0" y="0" font-family="'OpenSans-Bold'" font-size="25">Graphic design for TodAi</tspan><tspan x="0" y="30" font-family="'OpenSans'" font-size="25">Just make it good.</tspan></text>
<rect x="815.3" y="869.4" fill="none" width="440.8" height="87"/>
<text transform="matrix(1 0 0 1 815.2573 890.8075)"><tspan x="0" y="0" font-family="'OpenSans'" font-size="25">(Swipe from right to left postpones </tspan><tspan x="0" y="30" font-family="'OpenSans'" font-size="25">task. Or tries to postpone it.)</tspan></text>
<rect x="692.5" y="670.8" fill="none" stroke="#1A1A1A" stroke-width="3" stroke-linejoin="round" stroke-miterlimit="10" width="87" height="430.2"/>
<rect x="810.5" y="36.5" fill="none" stroke="#00A99D" stroke-width="3" stroke-linejoin="round" stroke-miterlimit="10" width="445.6" height="131"/>
<rect x="1320" fill="#FAFAFA" width="640" height="1136"/>
<rect x="1320" y="430.1" fill="#39B54A" width="640" height="226.5"/>
<rect x="1452.2" y="843.1" fill="#FCEE21" width="481.6" height="113.6"/>
<polygon fill="none" stroke="#1A1A1A" stroke-width="3" stroke-linejoin="round" stroke-miterlimit="10" points="1352.5,36.5 
	1352.5,43.2 1396,75.8 1439.5,43.2 1439.5,36.5 "/>
<polygon opacity="0.25" fill="none" stroke="#00A99D" stroke-width="3" stroke-linejoin="round" stroke-miterlimit="10" points="
	1439.5,62.7 1439.5,167.5 1352.5,167.5 1352.5,62.7 1396,95.3 "/>
<rect x="1352.5" y="228" fill="none" width="419.7" height="54"/>
<text transform="matrix(1 0 0 1 1352.4998 270.8452)" font-family="'OpenSans-Light'" font-size="50" letter-spacing="1">Today’s agenda</text>
<rect x="1483.4" y="75" fill="none" width="419.7" height="54"/>
<text transform="matrix(1 0 0 1 1510.8455 117.8557)" fill="#00A99D" font-family="'OpenSans-Light'" font-size="50" letter-spacing="1">Add new task +</text>
<rect x="1352.5" y="344.7" fill="none" width="87" height="54"/>
<text transform="matrix(1 0 0 1 1381.7306 387.5927)" font-family="'OpenSans-Light'" font-size="50" letter-spacing="1">1</text>
<rect x="1352.5" y="858.9" fill="none" width="87" height="54"/>
<text transform="matrix(1 0 0 1 1381.7306 901.7336)" font-family="'OpenSans-Light'" font-size="50" letter-spacing="1">4</text>
<rect x="1475.3" y="328.2" fill="none" width="440.8" height="87"/>
<text transform="matrix(1 0 0 1 1475.2573 349.668)"><tspan x="0" y="0" font-family="'OpenSans-Bold'" font-size="25">Call grandma</tspan><tspan x="0" y="30" font-family="'OpenSans'" font-size="25">Ask for cookie recipe.</tspan></text>
<rect x="1352.5" y="328.2" fill="none" stroke="#1A1A1A" stroke-width="3" stroke-linejoin="round" stroke-miterlimit="10" width="87" height="87"/>
<rect x="1475.3" y="442.5" fill="none" width="440.8" height="188.6"/>
<text transform="matrix(1 0 0 1 1475.2583 463.9572)"><tspan x="0" y="0" fill="#FAFAFA" font-family="'OpenSans'" font-size="25">Great! </tspan><tspan x="84.8" y="0" fill="#FAFAFA" font-family="'OpenSans-Bold'" font-size="25">Shitty essay </tspan><tspan x="252.5" y="0" fill="#FAFAFA" font-family="'OpenSans'" font-size="25">done. </tspan><tspan x="0" y="30" fill="#FAFAFA" font-family="'OpenSans'" font-size="25"> </tspan><tspan x="0" y="60" fill="#FAFAFA" font-family="'OpenSans'" font-size="25">Two more tasks for today.</tspan></text>
<rect x="1475.3" y="671.1" fill="none" width="440.8" height="87"/>
<text transform="matrix(1 0 0 1 1475.2573 692.5342)"><tspan x="0" y="0" font-family="'OpenSans-Bold'" font-size="25">Graphic design for TodAi</tspan><tspan x="0" y="30" font-family="'OpenSans'" font-size="25">Just make it good.</tspan></text>
<rect x="1475.3" y="869.4" fill="none" width="440.8" height="87"/>
<text transform="matrix(1 0 0 1 1475.2573 890.8075)"><tspan x="0" y="0" font-family="'OpenSans'" font-size="25">(Swipe from left to right clears the </tspan><tspan x="0" y="30" font-family="'OpenSans'" font-size="25">task.)</tspan></text>
<rect x="1352.5" y="670.8" fill="none" stroke="#1A1A1A" stroke-width="3" stroke-linejoin="round" stroke-miterlimit="10" width="87" height="430.2"/>
<rect x="1470.5" y="36.5" fill="none" stroke="#00A99D" stroke-width="3" stroke-linejoin="round" stroke-miterlimit="10" width="445.6" height="131"/>
<rect x="3300" fill="#FAFAFA" width="640" height="1136"/>
<polygon opacity="0.25" fill="none" stroke="#1A1A1A" stroke-width="3" stroke-linejoin="round" stroke-miterlimit="10" points="
	3332.5,36.5 3332.5,43.2 3376,75.8 3419.5,43.2 3419.5,36.5 "/>
<polygon fill="none" stroke="#00A99D" stroke-width="3" stroke-linejoin="round" stroke-miterlimit="10" points="3419.5,62.7 
	3419.5,167.5 3332.5,167.5 3332.5,62.7 3376,95.3 "/>
<rect x="3332.5" y="399.6" fill="none" width="419.7" height="54"/>
<text transform="matrix(1 0 0 1 3332.4998 442.4351)" fill="#00A99D" font-family="'OpenSans-Light'" font-size="50" letter-spacing="1">Today’s agenda</text>
<rect x="3332.5" y="730.9" fill="none" width="419.7" height="54"/>
<text transform="matrix(1 0 0 1 3332.4998 773.7762)" fill="#00A99D" font-family="'OpenSans-Light'" font-size="50" letter-spacing="1">Weeks’ agenda</text>
<rect x="3401.9" y="249.1" fill="none" width="419.7" height="54"/>
<text transform="matrix(1 0 0 1 3429.3433 291.9796)" fill="#00A99D" font-family="'OpenSans-Light'" font-size="50" letter-spacing="1">Add new task +</text>
<rect x="3332.5" y="516.3" fill="none" width="87" height="54"/>
<text transform="matrix(1 0 0 1 3361.7305 559.1825)" font-family="'OpenSans-Light'" font-size="50" letter-spacing="1">1</text>
<rect x="3455.3" y="499.8" fill="none" width="440.8" height="87"/>
<text transform="matrix(1 0 0 1 3455.2573 521.2578)"><tspan x="0" y="0" font-family="'OpenSans-Bold'" font-size="25">Call grandma</tspan><tspan x="0" y="30" font-family="'OpenSans'" font-size="25">Ask for cookie recipe.</tspan></text>
<rect x="3332.5" y="499.8" fill="none" stroke="#1A1A1A" stroke-width="3" stroke-linejoin="round" stroke-miterlimit="10" width="87" height="87"/>
<rect x="3332.5" y="630.6" fill="none" width="87" height="54"/>
<text transform="matrix(1 0 0 1 3361.7305 673.4713)" font-family="'OpenSans-Light'" font-size="50" letter-spacing="1">1</text>
<rect x="3455.3" y="614.1" fill="none" width="440.8" height="87"/>
<text transform="matrix(1 0 0 1 3455.2573 635.5465)"><tspan x="0" y="0" font-family="'OpenSans-Bold'" font-size="25">Visual guidelines</tspan><tspan x="0" y="30" font-family="'OpenSans'" font-size="25">TodAi needs you!</tspan></text>
<rect x="3332.5" y="614.1" fill="none" stroke="#1A1A1A" stroke-width="3" stroke-linejoin="round" stroke-miterlimit="10" width="87" height="87"/>
<rect x="3332.5" y="834.4" fill="none" width="87" height="54"/>
<text transform="matrix(1 0 0 1 3361.7305 877.2776)" fill="#00A99D" font-family="'OpenSans-Light'" font-size="50" letter-spacing="1">1</text>
<rect x="3455.3" y="817.9" fill="none" width="440.8" height="87"/>
<text transform="matrix(1 0 0 1 3455.2573 839.3529)"><tspan x="0" y="0" fill="#00A99D" font-family="'OpenSans-Bold'" font-size="25">Trashes (R)</tspan><tspan x="0" y="30" fill="#00A99D" font-family="'OpenSans'" font-size="25">Smelly house ain’t nice!</tspan></text>
<rect x="3332.5" y="817.9" fill="none" stroke="#00A99D" stroke-width="3" stroke-linejoin="round" stroke-miterlimit="10" width="87" height="87"/>
<rect x="3332.5" y="1124.8" fill="none" width="87" height="54"/>
<text transform="matrix(1 0 0 1 3361.7305 1167.6373)" fill="#00A99D" font-family="'OpenSans-Light'" font-size="50" letter-spacing="1">2</text>
<rect x="3455.3" y="1046.4" fill="none" width="440.8" height="87"/>
<text transform="matrix(1 0 0 1 3455.2573 1067.783)"><tspan x="0" y="0" fill="#00A99D" font-family="'OpenSans-Bold'" font-size="25">Do all paper work</tspan><tspan x="0" y="30" fill="#00A99D" font-family="'OpenSans'" font-size="25">...</tspan></text>
<rect x="3332.5" y="1046.4" fill="none" stroke="#00A99D" stroke-width="3" stroke-linejoin="round" stroke-miterlimit="10" width="87" height="210.9"/>
<rect x="3332.5" y="946" fill="none" width="87" height="54"/>
<text transform="matrix(1 0 0 1 3361.7305 988.8429)" fill="#00A99D" font-family="'OpenSans-Light'" font-size="50" letter-spacing="1">1</text>
<rect x="3455.3" y="929.5" fill="none" width="440.8" height="87"/>
<text transform="matrix(1 0 0 1 3455.2573 950.9182)"><tspan x="0" y="0" fill="#00A99D" font-family="'OpenSans-Bold'" font-size="25">Buy new socks</tspan><tspan x="0" y="30" fill="#00A99D" font-family="'OpenSans'" font-size="25">Black ones.</tspan></text>
<rect x="3332.5" y="929.5" fill="none" stroke="#00A99D" stroke-width="3" stroke-linejoin="round" stroke-miterlimit="10" width="87" height="87"/>
<rect x="3332.5" y="210.6" fill="none" stroke="#00A99D" stroke-width="3" stroke-linejoin="round" stroke-miterlimit="10" width="558.6" height="131"/>
<g>
	
		<rect x="3455.3" y="36.5" fill="none" stroke="#00A99D" stroke-width="3" stroke-linejoin="round" stroke-miterlimit="10" width="88.6" height="21.2"/>
	
		<rect x="3455.3" y="73.1" fill="none" stroke="#00A99D" stroke-width="3" stroke-linejoin="round" stroke-miterlimit="10" width="88.6" height="21.2"/>
	
		<rect x="3455.3" y="109.7" fill="none" stroke="#00A99D" stroke-width="3" stroke-linejoin="round" stroke-miterlimit="10" width="88.6" height="21.2"/>
	
		<rect x="3455.3" y="146.3" fill="none" stroke="#00A99D" stroke-width="3" stroke-linejoin="round" stroke-miterlimit="10" width="88.6" height="21.2"/>
</g>
<rect x="3575.7" y="36.5" opacity="0.25" fill="none" stroke="#00A99D" stroke-width="3" stroke-linejoin="round" stroke-miterlimit="10" width="37.3" height="21.2"/>
<rect x="3627" y="36.5" opacity="0.25" fill="none" stroke="#00A99D" stroke-width="3" stroke-linejoin="round" stroke-miterlimit="10" width="37.3" height="21.2"/>
<rect x="3575.7" y="73.1" opacity="0.25" fill="none" stroke="#00A99D" stroke-width="3" stroke-linejoin="round" stroke-miterlimit="10" width="37.3" height="21.2"/>
<rect x="3627" y="73.1" opacity="0.25" fill="none" stroke="#00A99D" stroke-width="3" stroke-linejoin="round" stroke-miterlimit="10" width="37.3" height="21.2"/>
<rect x="3575.7" y="109.7" opacity="0.25" fill="none" stroke="#00A99D" stroke-width="3" stroke-linejoin="round" stroke-miterlimit="10" width="37.3" height="21.2"/>
<rect x="3627" y="109.7" opacity="0.25" fill="none" stroke="#00A99D" stroke-width="3" stroke-linejoin="round" stroke-miterlimit="10" width="37.3" height="21.2"/>
<rect x="3575.7" y="146.3" opacity="0.25" fill="none" stroke="#00A99D" stroke-width="3" stroke-linejoin="round" stroke-miterlimit="10" width="37.3" height="21.2"/>
<rect x="3627" y="146.3" opacity="0.25" fill="none" stroke="#00A99D" stroke-width="3" stroke-linejoin="round" stroke-miterlimit="10" width="37.3" height="21.2"/>
<rect x="1980" fill="#FAFAFA" width="640" height="1136"/>
<polygon fill="none" stroke="#1A1A1A" stroke-width="3" stroke-linejoin="round" stroke-miterlimit="10" points="2012.5,36.5 
	2012.5,43.2 2056,75.8 2099.5,43.2 2099.5,36.5 "/>
<polygon opacity="0.25" fill="none" stroke="#00A99D" stroke-width="3" stroke-linejoin="round" stroke-miterlimit="10" points="
	2099.5,62.7 2099.5,167.5 2012.5,167.5 2012.5,62.7 2056,95.3 "/>
<rect x="2143.4" y="1003" fill="none" width="419.7" height="54"/>
<text transform="matrix(1 0 0 1 2170.8455 1045.8557)" fill="#00A99D" font-family="'OpenSans-Light'" font-size="50" letter-spacing="1">Add new task +</text>
<rect x="2130.5" y="36.5" fill="none" stroke="#00A99D" stroke-width="4" stroke-linejoin="round" stroke-miterlimit="10" width="445.6" height="1045.7"/>
<rect x="2149.9" y="56.1" fill="none" stroke="#00A99D" stroke-width="4" stroke-linejoin="round" stroke-miterlimit="10" width="406.7" height="80"/>
<rect x="2149.9" y="85" fill="none" width="406.7" height="51.1"/>
<text transform="matrix(1 0 0 1 2323.7634 106.4235)" opacity="0.25" fill="#00A99D" font-family="'OpenSans-Bold'" font-size="25">Title</text>
<rect x="2149.9" y="167.5" fill="none" stroke="#00A99D" stroke-width="4" stroke-linejoin="round" stroke-miterlimit="10" width="406.7" height="80"/>
<rect x="2149.9" y="196.4" fill="none" width="406.7" height="51.1"/>
<text transform="matrix(1 0 0 1 2238.3425 217.7961)" opacity="0.25" fill="#00A99D" font-family="'OpenSans-Bold'" font-size="25">Short descriotion</text>
<rect x="2149.9" y="282" fill="none" stroke="#00A99D" stroke-width="4" stroke-linejoin="round" stroke-miterlimit="10" width="406.7" height="80"/>
<rect x="2149.9" y="310.9" fill="none" width="406.7" height="51.1"/>
<text transform="matrix(1 0 0 1 2314.5164 332.292)" opacity="0.25" fill="#00A99D" font-family="'OpenSans-Bold'" font-size="25">Notes</text>
<rect x="2149.9" y="402.5" fill="none" stroke="#00A99D" stroke-width="4" stroke-linejoin="round" stroke-miterlimit="10" width="406.7" height="80"/>
<rect x="2149.9" y="431.4" fill="none" width="406.7" height="51.1"/>
<text transform="matrix(1 0 0 1 2294.7273 452.8412)" opacity="0.25" fill="#00A99D" font-family="'OpenSans-Bold'" font-size="25">Deadline</text>
<rect x="2149.9" y="519.4" fill="none" stroke="#00A99D" stroke-width="4" stroke-linejoin="round" stroke-miterlimit="10" width="406.7" height="80"/>
<rect x="2149.9" y="548.2" fill="none" width="406.7" height="51.1"/>
<text transform="matrix(1 0 0 1 2244.5105 569.6476)" opacity="0.25" fill="#00A99D" font-family="'OpenSans-Bold'" font-size="25">Estimated hours</text>
<rect x="2149.9" y="634.6" fill="none" stroke="#00A99D" stroke-width="4" stroke-linejoin="round" stroke-miterlimit="10" width="406.7" height="80"/>
<rect x="2149.9" y="663.5" fill="none" width="406.7" height="51.1"/>
<text transform="matrix(1 0 0 1 2307.071 684.9304)" opacity="0.25" fill="#00A99D" font-family="'OpenSans-Bold'" font-size="25">Repeat</text>
<rect x="2640" fill="#FAFAFA" width="640" height="1136"/>
<g>
	<path fill="#1A1A1A" d="M2895.5,551.4h-3.4v-45.5h-15.8v-3.2h35.1v3.2h-15.8V551.4z"/>
	<path fill="#1A1A1A" d="M2948.3,533.3c0,5.9-1.4,10.5-4.3,13.8c-2.9,3.3-6.8,5-11.9,5c-3.2,0-6-0.8-8.4-2.3
		c-2.4-1.5-4.3-3.7-5.6-6.6c-1.3-2.9-1.9-6.2-1.9-9.9c0-5.9,1.4-10.5,4.3-13.8c2.9-3.3,6.8-4.9,11.8-4.9c5,0,8.9,1.7,11.7,5
		C2946.8,522.9,2948.3,527.4,2948.3,533.3z M2919.7,533.3c0,5,1.1,8.8,3.3,11.6c2.2,2.8,5.3,4.2,9.3,4.2s7.1-1.4,9.3-4.2
		c2.2-2.8,3.3-6.7,3.3-11.6c0-5-1.1-8.9-3.3-11.6c-2.2-2.7-5.3-4.1-9.3-4.1c-4,0-7.1,1.4-9.2,4.1
		C2920.8,524.4,2919.7,528.2,2919.7,533.3z"/>
	<path fill="#1A1A1A" d="M2972.2,514.5c2.6,0,4.9,0.5,6.8,1.4c1.9,1,3.6,2.6,5.1,4.9h0.2c-0.1-2.8-0.2-5.5-0.2-8.2v-13h3.3v51.8
		h-2.2l-0.8-5.5h-0.3c-2.8,4.1-6.7,6.2-11.9,6.2c-5,0-8.8-1.6-11.5-4.7c-2.6-3.1-4-7.6-4-13.6c0-6.3,1.3-11,3.9-14.3
		C2963.4,516.2,2967.2,514.5,2972.2,514.5z M2972.2,517.5c-3.9,0-6.9,1.4-8.9,4.2c-2,2.8-3,6.8-3,12.1c0,10.3,4,15.4,11.9,15.4
		c4.1,0,7.1-1.2,9-3.6c1.9-2.4,2.9-6.3,2.9-11.8v-0.6c0-5.6-0.9-9.6-2.8-12.1C2979.4,518.7,2976.4,517.5,2972.2,517.5z"/>
	<path fill="#00A99D" d="M3024.5,534.2h-19.8l-6.8,17.2h-3.8l19.6-48.9h2.2l19.2,48.9h-3.8L3024.5,534.2z M3006,531.2h17.4
		l-6.6-17.5c-0.6-1.4-1.2-3.3-2-5.7c-0.6,2.1-1.3,4.1-2,5.8L3006,531.2z"/>
	<path fill="#00A99D" d="M3041.4,505.2c0-2.1,0.7-3.2,2.1-3.2c0.7,0,1.2,0.3,1.6,0.8s0.6,1.3,0.6,2.4c0,1-0.2,1.8-0.6,2.4
		c-0.4,0.6-0.9,0.9-1.6,0.9C3042.1,508.4,3041.4,507.3,3041.4,505.2z M3045.1,551.4h-3.3v-36.2h3.3V551.4z"/>
	<polygon fill="none" stroke="#1A1A1A" stroke-width="4" stroke-linejoin="round" stroke-miterlimit="10" points="2874,196 
		2874,212.5 2959,276.1 3044,212.5 3044,196 	"/>
	<polygon fill="none" stroke="#00A99D" stroke-width="4" stroke-linejoin="round" stroke-miterlimit="10" points="3044,250.7 
		3044,451 2874,451 2874,250.7 2959,314.4 	"/>
</g>
<rect x="2756.6" y="624.9" fill="none" stroke="#00A99D" stroke-width="4" stroke-linejoin="round" stroke-miterlimit="10" width="406.7" height="80"/>
<rect x="2756.6" y="653.8" fill="none" width="406.7" height="51.1"/>
<text transform="matrix(1 0 0 1 2923.6951 675.1948)" opacity="0.25" fill="#00A99D" font-family="'OpenSans-Bold'" font-size="25">Email</text>
<rect x="2756.6" y="729" fill="none" stroke="#00A99D" stroke-width="4" stroke-linejoin="round" stroke-miterlimit="10" width="406.7" height="80"/>
<rect x="2756.6" y="757.9" fill="none" width="406.7" height="51.1"/>
<text transform="matrix(1 0 0 1 2896.9109 779.3287)" opacity="0.25" fill="#00A99D" font-family="'OpenSans-Bold'" font-size="25">Password</text>
<rect x="2756.6" y="874.8" fill="none" width="406.7" height="51.1"/>
<text transform="matrix(1 0 0 1 2924.2566 896.1934)" fill="#1A1A1A" font-family="'OpenSans-Bold'" font-size="25">Login</text>
<g>
	<polygon fill="none" points="3856,93 3853.6,93 3856,95.4 	"/>
	<polygon fill="none" points="3845.6,114.6 3846.4,113.8 3844.9,113.8 	"/>
	<path fill="#00A99D" d="M3889.9,90h-15.1l-3,3h16.2v18h-16.2l3,3h15.1c0.8,0,1.1-0.9,1.1-1.7V91.1C3891,90.3,3890.8,90,3889.9,90z"
		/>
	<path fill="#00A99D" d="M3803,111V93h16.5l-3-3h-15.1c-0.8,0-1.3,0.3-1.3,1.1v21.2c0,0.8,0.5,1.7,1.3,1.7h15.1l3-3H3803z"/>
	<path fill="#00A99D" d="M3856,145h-18v-18.8l-3,3V146c0,0.8,0.9,2,1.7,2h21.2c0.8,0,1.1-1.2,1.1-2v-13.5l-3-3V145z"/>
	<path fill="#00A99D" d="M3838,59h18v14.9l3-3V57.4c0-0.8-0.3-1.4-1.1-1.4h-21.2c-0.8,0-1.7,0.6-1.7,1.4v16.8l3,3V59z"/>
	<path fill="#00A99D" d="M3882.3,125.7l-13,12.8l-10.3-10.2v4.2l9.2,9c0.3,0.3,0.8,0.4,1.2,0.4s0.8-0.1,1.1-0.4l15-15
		c0.3-0.3,0.5-0.7,0.5-1.1s-0.2-0.7-0.4-1l-10.7-10.6h-4.2L3882.3,125.7z"/>
	<path fill="#00A99D" d="M3808.9,78.1l12.8-12.9l13.3,13.3v-4.2l-12.2-12.3c-0.6-0.6-1.5-0.6-2.1,0l-14.9,15
		c-0.3,0.3-0.4,0.7-0.4,1.1s0.2,1,0.4,1.2l10.7,10.9h4.2L3808.9,78.1z"/>
	<polygon fill="#00A99D" points="3823.7,93 3820.7,90 3816.5,90 3819.5,93 	"/>
	<polygon fill="#00A99D" points="3867.6,111 3870.6,114 3874.8,114 3871.8,111 	"/>
	<polygon fill="#00A99D" points="3838,81.4 3838,77.2 3835,74.2 3835,78.4 	"/>
	<polygon fill="#00A99D" points="3856,125.3 3856,129.5 3859,132.5 3859,128.3 	"/>
	<path fill="#00A99D" d="M3869.3,65l12.9,13L3870.6,90h4.2l10.7-10.9c0.3-0.3,0.4-0.8,0.4-1.2s-0.2-0.8-0.4-1.1l-15-15
		c-0.6-0.6-1.7-0.6-2.3,0l-9.2,9v4.2L3869.3,65z"/>
	<path fill="#00A99D" d="M3821.7,138.4l-12.8-12.8l11.8-11.7h-4.2l-10.7,10.6c-0.3,0.3-0.4,0.6-0.4,1s0.2,0.8,0.4,1l15,15
		c0.3,0.3,0.7,0.4,1.1,0.4s0.7-0.1,1-0.4l12.2-12.3V125L3821.7,138.4z"/>
	<polygon fill="#00A99D" points="3823.7,111 3819.5,111 3816.5,114 3820.7,114 	"/>
	<polygon fill="#00A99D" points="3867.6,93 3871.8,93 3874.8,90 3870.6,90 	"/>
	<polygon fill="#00A99D" points="3838,122 3835,125 3835,129.2 3838,126.2 	"/>
	<polygon fill="#00A99D" points="3856,78.1 3859,75.1 3859,70.9 3856,73.9 	"/>
	
		<circle fill="none" stroke="#00A99D" stroke-width="3" stroke-linejoin="round" stroke-miterlimit="10" cx="3845.8" cy="101.9" r="11.9"/>
</g>
<rect x="3960" fill="#FAFAFA" width="640" height="1136"/>
<polygon opacity="0.25" fill="none" stroke="#1A1A1A" stroke-width="3" stroke-linejoin="round" stroke-miterlimit="10" points="
	3992.5,36.5 3992.5,43.2 4036,75.8 4079.5,43.2 4079.5,36.5 "/>
<polygon fill="none" stroke="#00A99D" stroke-width="3" stroke-linejoin="round" stroke-miterlimit="10" points="4079.5,62.7 
	4079.5,167.5 3992.5,167.5 3992.5,62.7 4036,95.3 "/>
<rect x="3992.5" y="399.6" fill="none" width="419.7" height="54"/>
<text transform="matrix(1 0 0 1 3992.5 442.4351)" fill="#00A99D" font-family="'OpenSans-Light'" font-size="50" letter-spacing="1">Today’s agenda</text>
<rect x="3992.5" y="626.8" fill="none" width="419.7" height="54"/>
<text transform="matrix(1 0 0 1 3992.5 669.6192)" fill="#00A99D" font-family="'OpenSans-Light'" font-size="50" letter-spacing="1">Weeks’ agenda</text>
<rect x="4061.9" y="249.1" fill="none" width="419.7" height="54"/>
<text transform="matrix(1 0 0 1 4089.3433 291.9796)" fill="#00A99D" font-family="'OpenSans-Light'" font-size="50" letter-spacing="1">Add new task +</text>
<rect x="3992.5" y="516.3" fill="none" width="87" height="54"/>
<text transform="matrix(1 0 0 1 4021.7305 559.1825)" font-family="'OpenSans-Light'" font-size="50" letter-spacing="1">1</text>
<rect x="3992.5" y="499.8" fill="none" stroke="#1A1A1A" stroke-width="3" stroke-linejoin="round" stroke-miterlimit="10" width="87" height="87"/>
<rect x="4116.1" y="516.3" fill="none" width="87" height="54"/>
<text transform="matrix(1 0 0 1 4145.2847 559.1825)" font-family="'OpenSans-Light'" font-size="50" letter-spacing="1">1</text>
<rect x="4116.1" y="499.8" fill="none" stroke="#1A1A1A" stroke-width="3" stroke-linejoin="round" stroke-miterlimit="10" width="87" height="87"/>
<rect x="3992.5" y="735.1" fill="none" width="87" height="54"/>
<text transform="matrix(1 0 0 1 4021.7305 777.9949)" fill="#00A99D" font-family="'OpenSans-Light'" font-size="50" letter-spacing="1">1</text>
<rect x="3992.5" y="718.6" fill="none" stroke="#00A99D" stroke-width="3" stroke-linejoin="round" stroke-miterlimit="10" width="87" height="87"/>
<rect x="4101.9" y="790.9" fill="none" width="87" height="54"/>
<text transform="matrix(1 0 0 1 4131.1772 833.7776)" fill="#00A99D" font-family="'OpenSans-Light'" font-size="50" letter-spacing="1">2</text>
<rect x="4101.9" y="717.4" fill="none" stroke="#00A99D" stroke-width="3" stroke-linejoin="round" stroke-miterlimit="10" width="87" height="201.7"/>
<rect x="3992.5" y="846.7" fill="none" width="87" height="54"/>
<text transform="matrix(1 0 0 1 4021.7305 889.5602)" fill="#00A99D" font-family="'OpenSans-Light'" font-size="50" letter-spacing="1">1</text>
<rect x="3992.5" y="830.2" fill="none" stroke="#00A99D" stroke-width="3" stroke-linejoin="round" stroke-miterlimit="10" width="87" height="87"/>
<rect x="4210.3" y="735.1" fill="none" width="87" height="54"/>
<text transform="matrix(1 0 0 1 4239.5405 777.9949)" fill="#00A99D" font-family="'OpenSans-Light'" font-size="50" letter-spacing="1">1</text>
<rect x="4210.3" y="718.6" fill="none" stroke="#00A99D" stroke-width="3" stroke-linejoin="round" stroke-miterlimit="10" width="87" height="87"/>
<rect x="4210.3" y="846.7" fill="none" width="87" height="54"/>
<text transform="matrix(1 0 0 1 4239.5405 889.5602)" fill="#00A99D" font-family="'OpenSans-Light'" font-size="50" letter-spacing="1">1</text>
<rect x="4210.3" y="830.2" fill="none" stroke="#00A99D" stroke-width="3" stroke-linejoin="round" stroke-miterlimit="10" width="87" height="87"/>
<rect x="4325.6" y="735.1" fill="none" width="87" height="54"/>
<text transform="matrix(1 0 0 1 4354.7837 777.9949)" fill="#00A99D" font-family="'OpenSans-Light'" font-size="50" letter-spacing="1">1</text>
<rect x="4325.6" y="718.6" fill="none" stroke="#00A99D" stroke-width="3" stroke-linejoin="round" stroke-miterlimit="10" width="87" height="87"/>
<rect x="4325.6" y="846.7" fill="none" width="87" height="54"/>
<text transform="matrix(1 0 0 1 4354.7837 889.5602)" fill="#00A99D" font-family="'OpenSans-Light'" font-size="50" letter-spacing="1">1</text>
<rect x="4325.6" y="830.2" fill="none" stroke="#00A99D" stroke-width="3" stroke-linejoin="round" stroke-miterlimit="10" width="87" height="87"/>
<rect x="3992.5" y="210.6" fill="none" stroke="#00A99D" stroke-width="3" stroke-linejoin="round" stroke-miterlimit="10" width="558.6" height="131"/>
<g opacity="0.25">
	
		<rect x="4115.3" y="36.5" fill="none" stroke="#00A99D" stroke-width="3" stroke-linejoin="round" stroke-miterlimit="10" width="88.6" height="21.2"/>
	
		<rect x="4115.3" y="73.1" fill="none" stroke="#00A99D" stroke-width="3" stroke-linejoin="round" stroke-miterlimit="10" width="88.6" height="21.2"/>
	
		<rect x="4115.3" y="109.7" fill="none" stroke="#00A99D" stroke-width="3" stroke-linejoin="round" stroke-miterlimit="10" width="88.6" height="21.2"/>
	
		<rect x="4115.3" y="146.3" fill="none" stroke="#00A99D" stroke-width="3" stroke-linejoin="round" stroke-miterlimit="10" width="88.6" height="21.2"/>
</g>
<rect x="4235.7" y="36.5" fill="none" stroke="#00A99D" stroke-width="3" stroke-linejoin="round" stroke-miterlimit="10" width="37.3" height="21.2"/>
<rect x="4287" y="36.5" fill="none" stroke="#00A99D" stroke-width="3" stroke-linejoin="round" stroke-miterlimit="10" width="37.3" height="21.2"/>
<rect x="4235.7" y="73.1" fill="none" stroke="#00A99D" stroke-width="3" stroke-linejoin="round" stroke-miterlimit="10" width="37.3" height="21.2"/>
<rect x="4287" y="73.1" fill="none" stroke="#00A99D" stroke-width="3" stroke-linejoin="round" stroke-miterlimit="10" width="37.3" height="21.2"/>
<rect x="4235.7" y="109.7" fill="none" stroke="#00A99D" stroke-width="3" stroke-linejoin="round" stroke-miterlimit="10" width="37.3" height="21.2"/>
<rect x="4287" y="109.7" fill="none" stroke="#00A99D" stroke-width="3" stroke-linejoin="round" stroke-miterlimit="10" width="37.3" height="21.2"/>
<rect x="4235.7" y="146.3" fill="none" stroke="#00A99D" stroke-width="3" stroke-linejoin="round" stroke-miterlimit="10" width="37.3" height="21.2"/>
<rect x="4287" y="146.3" fill="none" stroke="#00A99D" stroke-width="3" stroke-linejoin="round" stroke-miterlimit="10" width="37.3" height="21.2"/>
<g>
	<polygon fill="none" points="4516,93 4513.6,93 4516,95.4 	"/>
	<polygon fill="none" points="4505.6,114.6 4506.4,113.8 4504.9,113.8 	"/>
	<path fill="#00A99D" d="M4549.9,90h-15.1l-3,3h16.2v18h-16.2l3,3h15.1c0.8,0,1.1-0.9,1.1-1.7V91.1C4551,90.3,4550.8,90,4549.9,90z"
		/>
	<path fill="#00A99D" d="M4463,111V93h16.5l-3-3h-15.1c-0.8,0-1.3,0.3-1.3,1.1v21.2c0,0.8,0.5,1.7,1.3,1.7h15.1l3-3H4463z"/>
	<path fill="#00A99D" d="M4516,145h-18v-18.8l-3,3V146c0,0.8,0.9,2,1.7,2h21.2c0.8,0,1.1-1.2,1.1-2v-13.5l-3-3V145z"/>
	<path fill="#00A99D" d="M4498,59h18v14.9l3-3V57.4c0-0.8-0.3-1.4-1.1-1.4h-21.2c-0.8,0-1.7,0.6-1.7,1.4v16.8l3,3V59z"/>
	<path fill="#00A99D" d="M4542.3,125.7l-13,12.8l-10.3-10.2v4.2l9.2,9c0.3,0.3,0.8,0.4,1.2,0.4s0.8-0.1,1.1-0.4l15-15
		c0.3-0.3,0.5-0.7,0.5-1.1s-0.2-0.7-0.4-1l-10.7-10.6h-4.2L4542.3,125.7z"/>
	<path fill="#00A99D" d="M4468.9,78.1l12.8-12.9l13.3,13.3v-4.2l-12.2-12.3c-0.6-0.6-1.5-0.6-2.1,0l-14.9,15
		c-0.3,0.3-0.4,0.7-0.4,1.1s0.2,1,0.4,1.2l10.7,10.9h4.2L4468.9,78.1z"/>
	<polygon fill="#00A99D" points="4483.7,93 4480.7,90 4476.5,90 4479.5,93 	"/>
	<polygon fill="#00A99D" points="4527.6,111 4530.6,114 4534.8,114 4531.8,111 	"/>
	<polygon fill="#00A99D" points="4498,81.4 4498,77.2 4495,74.2 4495,78.4 	"/>
	<polygon fill="#00A99D" points="4516,125.3 4516,129.5 4519,132.5 4519,128.3 	"/>
	<path fill="#00A99D" d="M4529.3,65l12.9,13L4530.6,90h4.2l10.7-10.9c0.3-0.3,0.4-0.8,0.4-1.2s-0.2-0.8-0.4-1.1l-15-15
		c-0.6-0.6-1.7-0.6-2.3,0l-9.2,9v4.2L4529.3,65z"/>
	<path fill="#00A99D" d="M4481.7,138.4l-12.8-12.8l11.8-11.7h-4.2l-10.7,10.6c-0.3,0.3-0.4,0.6-0.4,1s0.2,0.8,0.4,1l15,15
		c0.3,0.3,0.7,0.4,1.1,0.4s0.7-0.1,1-0.4l12.2-12.3V125L4481.7,138.4z"/>
	<polygon fill="#00A99D" points="4483.7,111 4479.5,111 4476.5,114 4480.7,114 	"/>
	<polygon fill="#00A99D" points="4527.6,93 4531.8,93 4534.8,90 4530.6,90 	"/>
	<polygon fill="#00A99D" points="4498,122 4495,125 4495,129.2 4498,126.2 	"/>
	<polygon fill="#00A99D" points="4516,78.1 4519,75.1 4519,70.9 4516,73.9 	"/>
	
		<circle fill="none" stroke="#00A99D" stroke-width="3" stroke-linejoin="round" stroke-miterlimit="10" cx="4505.8" cy="101.9" r="11.9"/>
</g>
</svg>
